<svg width="64" height="12" viewBox="0 0 64 12" fill="none" xmlns="http://www.w3.org/2000/svg">
<path d="M7.455 9.005H3.285L2.595 11H0.39L4.155 0.514999H6.6L10.365 11H8.145L7.455 9.005ZM6.885 7.325L5.37 2.945L3.855 7.325H6.885ZM11.2323 6.845C11.2323 5.985 11.4073 5.235 11.7573 4.595C12.1073 3.945 12.5923 3.445 13.2123 3.095C13.8323 2.735 14.5423 2.555 15.3423 2.555C16.3723 2.555 17.2223 2.815 17.8923 3.335C18.5723 3.845 19.0273 4.565 19.2573 5.495H16.9923C16.8723 5.135 16.6673 4.855 16.3773 4.655C16.0973 4.445 15.7473 4.34 15.3273 4.34C14.7273 4.34 14.2523 4.56 13.9023 5C13.5523 5.43 13.3773 6.045 13.3773 6.845C13.3773 7.635 13.5523 8.25 13.9023 8.69C14.2523 9.12 14.7273 9.335 15.3273 9.335C16.1773 9.335 16.7323 8.955 16.9923 8.195H19.2573C19.0273 9.095 18.5723 9.81 17.8923 10.34C17.2123 10.87 16.3623 11.135 15.3423 11.135C14.5423 11.135 13.8323 10.96 13.2123 10.61C12.5923 10.25 12.1073 9.75 11.7573 9.11C11.4073 8.46 11.2323 7.705 11.2323 6.845ZM20.2557 6.845C20.2557 5.985 20.4307 5.235 20.7807 4.595C21.1307 3.945 21.6157 3.445 22.2357 3.095C22.8557 2.735 23.5657 2.555 24.3657 2.555C25.3957 2.555 26.2457 2.815 26.9157 3.335C27.5957 3.845 28.0507 4.565 28.2807 5.495H26.0157C25.8957 5.135 25.6907 4.855 25.4007 4.655C25.1207 4.445 24.7707 4.34 24.3507 4.34C23.7507 4.34 23.2757 4.56 22.9257 5C22.5757 5.43 22.4007 6.045 22.4007 6.845C22.4007 7.635 22.5757 8.25 22.9257 8.69C23.2757 9.12 23.7507 9.335 24.3507 9.335C25.2007 9.335 25.7557 8.955 26.0157 8.195H28.2807C28.0507 9.095 27.5957 9.81 26.9157 10.34C26.2357 10.87 25.3857 11.135 24.3657 11.135C23.5657 11.135 22.8557 10.96 22.2357 10.61C21.6157 10.25 21.1307 9.75 20.7807 9.11C20.4307 8.46 20.2557 7.705 20.2557 6.845ZM33.5092 11.135C32.7092 11.135 31.9892 10.96 31.3492 10.61C30.7092 10.25 30.2042 9.745 29.8342 9.095C29.4742 8.445 29.2942 7.695 29.2942 6.845C29.2942 5.995 29.4792 5.245 29.8492 4.595C30.2292 3.945 30.7442 3.445 31.3942 3.095C32.0442 2.735 32.7692 2.555 33.5692 2.555C34.3692 2.555 35.0942 2.735 35.7442 3.095C36.3942 3.445 36.9042 3.945 37.2742 4.595C37.6542 5.245 37.8442 5.995 37.8442 6.845C37.8442 7.695 37.6492 8.445 37.2592 9.095C36.8792 9.745 36.3592 10.25 35.6992 10.61C35.0492 10.96 34.3192 11.135 33.5092 11.135ZM33.5092 9.305C33.8892 9.305 34.2442 9.215 34.5742 9.035C34.9142 8.845 35.1842 8.565 35.3842 8.195C35.5842 7.825 35.6842 7.375 35.6842 6.845C35.6842 6.055 35.4742 5.45 35.0542 5.03C34.6442 4.6 34.1392 4.385 33.5392 4.385C32.9392 4.385 32.4342 4.6 32.0242 5.03C31.6242 5.45 31.4242 6.055 31.4242 6.845C31.4242 7.635 31.6192 8.245 32.0092 8.675C32.4092 9.095 32.9092 9.305 33.5092 9.305ZM47.2296 2.69V11H45.1146V9.95C44.8446 10.31 44.4896 10.595 44.0496 10.805C43.6196 11.005 43.1496 11.105 42.6396 11.105C41.9896 11.105 41.4146 10.97 40.9146 10.7C40.4146 10.42 40.0196 10.015 39.7296 9.485C39.4496 8.945 39.3096 8.305 39.3096 7.565V2.69H41.4096V7.265C41.4096 7.925 41.5746 8.435 41.9046 8.795C42.2346 9.145 42.6846 9.32 43.2546 9.32C43.8346 9.32 44.2896 9.145 44.6196 8.795C44.9496 8.435 45.1146 7.925 45.1146 7.265V2.69H47.2296ZM53.9066 2.57C54.8966 2.57 55.6966 2.885 56.3066 3.515C56.9166 4.135 57.2216 5.005 57.2216 6.125V11H55.1216V6.41C55.1216 5.75 54.9566 5.245 54.6266 4.895C54.2966 4.535 53.8466 4.355 53.2766 4.355C52.6966 4.355 52.2366 4.535 51.8966 4.895C51.5666 5.245 51.4016 5.75 51.4016 6.41V11H49.3016V2.69H51.4016V3.725C51.6816 3.365 52.0366 3.085 52.4666 2.885C52.9066 2.675 53.3866 2.57 53.9066 2.57ZM61.6636 4.415V8.435C61.6636 8.715 61.7286 8.92 61.8586 9.05C61.9986 9.17 62.2286 9.23 62.5486 9.23H63.5236V11H62.2036C60.4336 11 59.5486 10.14 59.5486 8.42V4.415H58.5586V2.69H59.5486V0.634999H61.6636V2.69H63.5236V4.415H61.6636Z" fill="black"/>
</svg>
